<?xml version="1.0" standalone="no"?>
<!DOCTYPE svg PUBLIC "-//W3C//DTD SVG 20010904//EN"
 "http://www.w3.org/TR/2001/REC-SVG-20010904/DTD/svg10.dtd">
<svg version="1.0" xmlns="http://www.w3.org/2000/svg"
 width="16.000000pt" height="16.000000pt" viewBox="0 0 16.000000 16.000000"
 preserveAspectRatio="xMidYMid meet">
<metadata>
Created by potrace 1.11, written by Peter Selinger 2001-2013
</metadata>
<g transform="translate(0.000000,16.000000) scale(0.001333,-0.001333)"
fill="#000000" stroke="none">
<path d="M10935 9443 c-14 -8 -25 -18 -25 -24 0 -6 -4 -8 -8 -5 -5 3 -24 -10
-42 -29 -26 -27 -36 -32 -47 -23 -18 15 -70 13 -91 -4 -13 -11 -14 -11 -7 1 5
9 -3 8 -24 -5 -18 -10 -37 -26 -41 -35 -10 -17 -75 -17 -1291 -3 l-417 5 -5
28 c-3 16 -21 44 -39 63 l-33 35 -120 -4 c-66 -1 -144 -6 -173 -9 -29 -3 -58
-2 -65 4 -14 10 -612 8 -667 -3 -19 -4 -37 -11 -38 -16 -2 -5 -8 -7 -12 -4 -5
3 -18 -3 -30 -15 -11 -11 -23 -20 -26 -20 -3 0 -19 -12 -35 -27 -34 -33 -40
-90 -11 -125 32 -40 75 -77 84 -72 5 3 7 1 6 -4 -4 -12 83 -92 94 -86 4 3 8 0
8 -6 0 -6 -11 -16 -25 -22 -14 -6 -25 -15 -25 -20 0 -5 -5 -6 -11 -3 -5 4 -19
-1 -30 -11 -10 -9 -19 -14 -19 -11 0 3 -26 -7 -57 -22 -32 -15 -96 -45 -143
-67 -47 -21 -88 -42 -91 -47 -3 -5 -9 -8 -13 -8 -17 3 -55 -12 -50 -20 3 -5
-2 -6 -10 -3 -10 4 -16 1 -16 -7 0 -7 -3 -10 -6 -7 -3 3 -53 -17 -112 -44
-150 -71 -216 -101 -222 -103 -30 -8 -110 -50 -110 -57 0 -5 -4 -6 -10 -3 -5
3 -10 1 -10 -5 0 -6 -4 -9 -9 -5 -11 6 -61 -14 -61 -25 0 -4 -6 -7 -12 -7 -7
0 -56 -20 -108 -45 -52 -25 -116 -53 -142 -64 -25 -10 -45 -21 -43 -24 2 -4
-9 -6 -26 -6 -16 0 -29 2 -29 5 0 6 -40 25 -76 35 -12 4 -52 7 -90 8 -38 0
-74 5 -81 10 -11 9 -110 14 -407 23 -134 3 -166 11 -150 37 3 4 -5 9 -18 9
-13 1 -32 3 -43 5 -11 1 -45 5 -76 8 -31 2 -74 9 -95 15 -64 17 -94 21 -189
26 -139 9 -176 12 -235 20 -30 5 -64 7 -75 6 -35 -5 -80 -47 -108 -103 -35
-68 -38 -84 -43 -188 -4 -99 14 -145 63 -155 15 -3 42 -12 58 -20 26 -11 105
-27 209 -41 15 -2 33 -1 40 4 15 10 116 11 116 1 0 -4 3 -14 6 -22 3 -10 -3
-18 -18 -22 -37 -11 -108 -48 -109 -57 -6 -38 -21 -58 -44 -58 -13 0 -27 -5
-31 -11 -4 -7 -19 -8 -38 -5 -17 4 -49 9 -71 13 -22 3 -46 10 -53 15 -6 6 -12
7 -12 3 0 -4 -10 -1 -23 7 -12 8 -37 15 -55 14 -17 -1 -32 3 -32 8 0 11 -91 1
-117 -13 -81 -43 -149 -66 -260 -87 -13 -2 -35 -6 -50 -9 -46 -9 -137 -7 -166
4 -15 6 -27 8 -27 5 0 -4 -6 -2 -12 3 -15 12 -102 33 -155 38 -21 2 -80 15
-132 29 -51 13 -101 23 -112 21 -10 -2 -18 1 -16 8 1 7 -4 11 -11 9 -6 -1 -11
1 -10 5 1 5 -3 18 -10 29 -9 17 -20 22 -47 20 -19 -1 -35 2 -35 7 0 4 -5 5
-10 2 -6 -4 -9 -1 -8 7 2 7 -3 12 -10 10 -8 -1 -11 1 -8 6 3 5 -4 16 -16 26
-16 14 -27 16 -57 9 -20 -5 -49 -8 -66 -7 -26 3 -48 7 -131 27 -7 2 -18 8 -25
14 -38 30 -135 33 -183 6 -34 -19 -96 -85 -90 -95 4 -6 3 -8 -3 -5 -10 7 -39
-37 -45 -68 -1 -11 -7 -23 -13 -27 -14 -10 -11 -144 3 -161 7 -8 9 -17 5 -20
-3 -4 -1 -7 6 -7 7 0 9 -5 6 -10 -7 -11 82 -53 95 -45 14 9 70 13 70 5 0 -4
15 -11 33 -17 28 -8 32 -13 32 -43 0 -37 -17 -63 -44 -66 -9 -1 -42 -5 -74 -8
-32 -4 -72 -13 -89 -22 -39 -20 -78 -27 -78 -14 0 5 -7 10 -15 10 -8 0 -15 -6
-15 -14 0 -24 -28 -38 -76 -39 -38 0 -47 -4 -55 -24 -5 -13 -15 -23 -23 -23
-8 0 -21 -6 -28 -13 -17 -18 -68 -30 -68 -17 0 14 -48 -10 -55 -28 -3 -8 -1
-20 5 -26 22 -22 8 -31 -52 -35 -35 -2 -79 -5 -98 -6 -19 -2 -80 -6 -135 -9
-55 -3 -129 -8 -165 -10 -206 -16 -302 -20 -800 -41 -58 -2 -170 -7 -250 -10
-143 -7 -195 -8 -215 -6 -5 1 -9 22 -8 48 2 53 -21 113 -44 113 -8 0 -12 4 -9
9 7 11 -60 72 -70 63 -4 -4 -4 -2 -1 5 10 17 -104 129 -117 116 -3 -4 -6 -1
-6 5 0 14 -69 44 -87 38 -7 -3 -15 -1 -17 3 -7 10 -70 -1 -116 -21 -40 -17
-94 -73 -106 -109 -12 -38 -14 -50 -16 -116 -1 -50 5 -74 28 -123 15 -33 32
-60 36 -60 11 0 1 -36 -17 -64 -10 -14 -24 -26 -31 -26 -8 0 -14 -5 -14 -11 0
-5 -4 -8 -9 -5 -18 11 -33 -23 -25 -56 4 -18 8 -49 9 -68 3 -53 14 -80 33 -81
9 0 100 -2 202 -3 185 -2 209 -6 243 -34 9 -8 17 -11 17 -6 0 20 28 -45 32
-77 4 -26 -1 -42 -19 -66 -15 -19 -26 -49 -28 -76 -2 -24 -5 -48 -6 -53 -2 -5
1 -24 5 -42 8 -34 49 -72 105 -95 32 -14 34 -17 37 -73 4 -61 11 -160 13 -181
1 -9 21 -11 79 -7 70 5 127 10 143 13 6 1 -11 77 -22 96 -7 13 -5 32 5 69 6
19 5 36 -2 47 -8 12 -8 20 -2 24 6 4 7 11 4 17 -4 7 -2 8 4 4 11 -6 38 31 34
47 -1 4 3 7 9 7 19 0 38 67 36 126 -2 61 -9 76 -64 130 -27 27 -30 33 -16 38
9 4 13 9 10 13 -4 3 -2 14 3 24 8 14 5 19 -18 27 l-27 10 27 10 c19 8 322 13
945 17 505 3 1090 7 1301 9 210 1 382 -2 382 -6 0 -5 7 -11 16 -15 9 -3 28
-17 42 -30 14 -13 36 -26 49 -29 13 -4 23 -10 23 -14 0 -4 -30 -36 -67 -70
-38 -35 -67 -67 -65 -72 1 -5 -2 -7 -7 -4 -5 4 -18 -4 -28 -16 -10 -13 -37
-38 -61 -56 -23 -19 -40 -38 -37 -42 7 -11 -20 -6 -65 13 -39 16 -112 15 -118
-2 -2 -6 -7 -9 -12 -6 -11 7 -68 -53 -76 -79 -11 -37 -24 -47 -45 -35 -15 8
-28 5 -54 -11 -19 -12 -35 -26 -35 -31 0 -5 -3 -8 -7 -7 -15 3 -43 -14 -37
-23 3 -5 2 -8 -3 -7 -8 3 -83 -39 -93 -52 -5 -6 -107 -76 -138 -95 -9 -5 -19
-13 -22 -16 -3 -3 -51 -36 -108 -73 -56 -37 -102 -72 -102 -78 0 -6 -3 -8 -6
-5 -4 4 -24 -7 -44 -23 -21 -17 -41 -30 -45 -30 -4 0 -17 -10 -29 -23 -11 -12
-25 -24 -31 -26 -30 -10 -34 -14 -28 -24 3 -5 1 -7 -4 -4 -9 5 -102 -55 -159
-102 -6 -5 -25 -16 -42 -25 -18 -9 -32 -19 -32 -22 0 -3 5 -2 12 2 7 4 8 3 4
-5 -4 -6 -11 -9 -16 -6 -5 3 -18 -3 -30 -15 -11 -11 -20 -17 -20 -14 0 3 -13
-5 -29 -18 -15 -12 -38 -30 -51 -38 -31 -20 -84 -63 -91 -73 -3 -5 -9 -8 -13
-7 -4 1 -23 -12 -41 -28 -18 -17 -36 -28 -39 -25 -3 4 -6 1 -6 -5 0 -7 -5 -12
-10 -12 -12 0 -138 -95 -158 -119 -7 -9 -10 -10 -7 -3 7 12 -60 -34 -113 -78
-12 -10 -22 -17 -22 -15 0 4 -119 -81 -147 -105 -7 -5 -17 -10 -22 -10 -6 0
-15 -8 -20 -17 -6 -10 -11 -14 -11 -10 0 5 -15 -3 -32 -17 -47 -37 -47 -38
-105 -75 -29 -18 -53 -37 -53 -43 0 -5 -4 -7 -8 -4 -5 3 -20 -6 -34 -19 -14
-13 -28 -22 -30 -19 -3 2 -13 -5 -23 -16 -10 -11 -22 -20 -27 -20 -9 0 -23
-11 -59 -42 -10 -10 -21 -18 -24 -18 -3 0 -10 0 -16 0 -5 0 -7 -5 -3 -12 4 -6
3 -8 -3 -5 -6 4 -23 -5 -39 -18 -22 -19 -28 -32 -26 -54 2 -16 -4 -35 -13 -44
-20 -21 -14 -59 27 -165 16 -42 32 -85 35 -94 3 -10 10 -18 15 -18 5 0 6 -4 3
-10 -3 -5 3 -27 14 -48 17 -32 25 -39 46 -36 20 2 29 -4 37 -22 6 -13 14 -24
18 -24 4 0 5 -11 2 -25 -2 -15 0 -25 7 -25 7 0 10 -4 6 -9 -3 -5 2 -16 10 -24
8 -9 15 -20 15 -26 0 -5 8 -15 18 -20 9 -6 13 -11 8 -11 -5 0 0 -10 11 -22 11
-13 26 -39 33 -58 26 -68 90 -146 147 -180 30 -18 64 -35 76 -36 12 -1 25 -3
30 -3 4 -1 6 -4 6 -9 -1 -4 0 -9 1 -12 1 -3 3 -13 6 -22 10 -44 16 -61 49
-133 59 -131 85 -195 85 -209 0 -9 7 -19 15 -22 8 -4 13 -10 10 -14 -3 -4 1
-10 8 -13 7 -3 19 -24 26 -48 7 -24 16 -51 19 -59 3 -8 6 -17 7 -20 20 -66 30
-90 38 -90 6 0 7 -3 4 -6 -3 -4 -1 -16 5 -28 7 -11 13 -23 13 -26 0 -6 23 -67
38 -100 6 -14 11 -27 12 -30 1 -3 7 -18 14 -35 20 -47 23 -82 10 -107 -15 -27
-19 -98 -7 -98 5 0 7 -4 4 -9 -3 -5 0 -28 7 -52 8 -25 12 -50 9 -57 -2 -6 1
-12 8 -12 6 0 9 -4 6 -9 -8 -12 50 -59 97 -79 23 -10 40 -26 43 -39 4 -13 10
-21 14 -18 4 3 10 -8 13 -24 3 -16 12 -35 19 -43 7 -7 14 -20 16 -28 2 -8 7
-17 10 -20 4 -3 15 -22 24 -42 10 -21 24 -38 33 -38 8 0 15 -5 15 -11 0 -5 5
-7 12 -3 6 4 8 3 5 -3 -4 -5 3 -20 14 -31 11 -12 17 -22 14 -22 -4 0 1 -7 10
-16 25 -25 36 -5 37 65 1 54 5 65 28 85 40 33 41 45 8 106 -50 92 -82 145 -91
151 -5 3 -8 9 -8 13 1 3 0 7 0 9 -6 11 -3 57 3 57 11 0 7 80 -4 86 -4 3 -8 18
-8 34 0 16 -5 32 -10 35 -6 4 -8 11 -5 16 4 5 1 9 -4 9 -6 0 -11 6 -11 13 -1
28 -67 82 -109 89 -16 2 -29 17 -44 53 -11 28 -23 52 -27 55 -3 3 -6 12 -8 20
-2 8 -11 33 -21 55 -10 22 -26 61 -36 88 -10 26 -22 47 -27 47 -5 0 -7 4 -3
10 3 5 1 17 -5 27 -24 42 -50 117 -50 144 0 16 -4 29 -8 29 -5 0 -9 6 -10 13
-1 20 -9 49 -25 92 -8 22 -20 59 -27 82 -7 24 -17 43 -22 43 -5 0 -7 4 -4 8 3
4 -6 39 -20 78 -29 85 -30 107 -3 143 30 40 35 148 11 216 -9 28 -20 52 -24
53 -5 2 -8 10 -8 18 0 8 -16 46 -35 84 -19 39 -34 71 -33 72 1 2 -11 22 -25
46 -15 23 -25 42 -22 42 3 0 -5 17 -18 38 -33 53 -41 68 -32 59 5 -4 17 0 27
10 10 9 18 12 18 7 0 -5 4 -4 8 1 4 6 33 23 65 39 31 16 57 34 57 39 0 6 3 7
7 4 3 -4 11 -3 17 2 12 9 62 38 133 76 23 13 39 26 36 29 -4 3 3 6 13 6 11 0
24 4 30 9 5 5 36 23 69 41 53 29 99 55 170 94 10 6 25 17 33 24 7 6 20 12 27
12 8 0 18 8 24 18 5 9 13 16 18 15 12 -4 63 21 63 30 0 5 5 5 10 2 6 -3 10 -3
10 2 0 4 10 13 23 19 60 30 163 88 168 97 3 5 9 7 12 5 4 -1 14 4 24 12 19 17
27 20 44 20 5 0 7 6 3 13 -4 6 -4 9 1 5 9 -9 105 41 105 54 0 5 4 7 9 3 5 -3
17 3 27 12 10 10 20 17 23 15 3 -1 13 3 22 10 8 7 22 14 30 16 8 2 20 10 27
19 6 9 12 14 12 10 0 -4 21 5 48 20 26 15 73 41 105 58 31 17 55 34 52 38 -3
4 -2 5 1 2 6 -4 64 22 74 34 3 3 37 23 75 43 l70 37 240 -4 c342 -6 374 -9
404 -43 14 -15 28 -26 33 -24 4 1 7 -4 6 -10 -2 -7 3 -12 10 -10 8 1 11 -1 8
-6 -6 -9 54 -58 67 -54 4 1 7 -3 7 -8 0 -12 120 -69 159 -76 14 -3 28 -7 31
-9 26 -16 151 -23 220 -11 83 13 164 69 257 180 36 42 107 148 111 165 1 9 3
78 4 154 1 124 3 137 19 137 10 0 20 4 23 8 7 12 82 5 146 -14 64 -19 113 -28
155 -28 35 1 116 13 128 21 9 6 37 10 122 19 33 3 62 6 65 7 3 0 23 -8 45 -18
22 -10 49 -22 60 -27 12 -5 27 -10 35 -12 8 -2 26 -8 40 -13 87 -37 129 -51
134 -46 3 4 6 2 6 -4 0 -9 77 -39 93 -35 4 1 7 -3 7 -8 0 -5 3 -9 8 -9 4 1 10
0 15 -1 4 -1 10 -3 15 -4 4 -1 24 -10 45 -19 21 -9 45 -18 55 -19 9 -2 19 -6
22 -9 3 -3 37 -18 75 -32 39 -14 94 -34 123 -45 28 -11 52 -17 52 -14 0 4 4 2
8 -4 10 -15 91 -46 103 -39 5 4 9 2 9 -3 0 -8 14 -15 43 -20 4 -1 21 -9 38
-18 17 -8 33 -13 36 -10 3 3 12 -1 20 -9 8 -8 23 -15 33 -15 10 0 22 -5 25
-11 4 -6 13 -8 20 -5 8 3 15 2 17 -2 5 -12 140 -62 151 -55 6 4 7 1 2 -7 -6
-10 -4 -12 8 -7 10 3 17 3 17 -2 0 -7 73 -35 95 -36 6 0 12 -2 15 -6 3 -3 43
-20 90 -38 47 -18 94 -37 105 -42 12 -6 27 -11 35 -13 8 -1 31 -9 50 -18 45
-19 103 -38 114 -37 5 0 12 -4 16 -11 4 -6 17 -12 28 -13 12 -1 22 -4 22 -8 0
-4 15 -11 33 -14 17 -4 43 -13 57 -20 14 -7 39 -18 55 -24 17 -6 44 -16 60
-22 17 -7 35 -13 40 -15 6 -1 38 -14 73 -27 34 -14 62 -22 62 -19 0 4 4 2 8
-3 9 -15 118 -55 126 -48 3 4 6 1 6 -6 0 -8 7 -11 15 -7 8 3 15 1 15 -5 0 -6
7 -9 15 -5 8 3 15 2 15 -2 0 -8 64 -36 85 -38 6 0 26 -8 45 -17 19 -9 73 -30
120 -47 47 -18 94 -36 105 -40 44 -18 60 -23 68 -22 4 1 7 -3 7 -8 0 -5 3 -9
8 -8 6 1 17 -2 66 -21 12 -5 30 -33 45 -71 25 -62 27 -64 75 -76 28 -7 53 -11
57 -8 4 2 9 0 11 -5 1 -5 17 -11 33 -13 17 -2 32 -6 35 -10 3 -4 16 -9 28 -11
12 -2 25 -6 28 -10 4 -4 17 -7 29 -7 11 0 25 -4 31 -9 5 -4 38 -14 74 -22 80
-17 72 -15 90 -21 40 -16 192 -48 201 -43 5 4 9 2 9 -3 0 -5 6 -9 13 -10 35
-4 82 -12 172 -32 151 -32 176 -34 505 -33 358 1 472 7 520 29 78 35 155 77
162 88 4 6 8 8 8 3 0 -7 48 20 60 33 3 3 21 14 40 23 123 61 235 124 238 133
4 15 -157 185 -169 178 -5 -3 -8 -1 -7 4 4 11 -92 98 -104 94 -5 -1 -7 1 -4 6
6 10 -83 88 -96 85 -4 -2 -7 1 -5 6 1 5 -2 11 -7 13 -5 1 -24 17 -41 33 -18
17 -51 46 -75 65 -23 19 -57 48 -74 63 -49 44 -180 138 -188 135 -4 -2 -14 6
-22 17 -9 11 -16 16 -16 12 0 -4 -12 3 -27 17 -15 14 -30 23 -35 20 -4 -3 -8
-1 -8 4 0 13 -76 53 -85 44 -5 -4 -5 -2 -2 4 3 6 -13 20 -36 32 -23 13 -69 38
-102 56 -33 19 -63 32 -67 30 -5 -3 -8 -1 -8 5 0 6 -17 18 -37 28 -21 9 -40
20 -43 23 -3 3 -43 25 -88 48 -69 34 -87 40 -104 31 -14 -8 -18 -8 -14 0 4 5
-16 1 -44 -11 -27 -11 -50 -25 -50 -29 0 -11 -47 -12 -52 -1 -5 12 -77 52 -94
52 -8 0 -12 5 -9 10 3 6 -1 10 -9 10 -9 0 -16 4 -16 9 0 7 -28 19 -47 19 -3 0
-9 4 -12 9 -9 14 -131 84 -131 75 0 -4 -5 1 -11 11 -5 9 -14 17 -19 17 -5 0
-32 13 -60 30 -27 16 -50 26 -50 22 0 -4 -4 -2 -8 4 -4 6 -38 28 -75 48 -38
20 -80 44 -93 52 -13 9 -24 12 -24 8 0 -5 -4 -4 -8 2 -12 19 -198 114 -207
106 -5 -4 -5 -1 -1 6 6 11 -5 17 -26 13 -5 0 -8 3 -8 8 0 10 -39 27 -52 23 -5
-1 -8 3 -8 8 0 6 -5 10 -11 10 -6 0 -24 9 -40 21 -16 11 -33 17 -39 14 -5 -3
-10 -2 -10 3 0 9 -81 49 -89 44 -2 -2 -7 1 -10 6 -5 8 -225 118 -305 153 -12
5 -28 13 -36 17 -18 11 -59 32 -80 43 -93 45 -147 69 -154 68 -5 0 -12 3 -15
8 -6 8 -101 57 -113 58 -3 0 -10 3 -14 8 -4 4 -32 19 -61 33 -30 13 -51 29
-48 33 2 5 60 7 127 5 68 -3 184 -6 258 -9 74 -2 142 -4 151 -4 11 -1 15 -9
13 -27 -4 -41 30 -108 55 -109 21 -1 101 -31 101 -37 0 -4 5 -8 12 -8 6 0 32
-9 57 -21 56 -25 77 -34 116 -47 17 -6 39 -13 50 -18 23 -8 42 -13 70 -18 11
-2 32 -6 46 -10 23 -7 70 -13 110 -15 9 -1 29 -13 45 -27 35 -32 121 -74 150
-74 12 0 24 7 28 15 8 21 33 19 57 -4 29 -27 162 -50 174 -30 3 4 12 6 20 2 8
-3 15 0 15 6 0 6 6 8 14 5 7 -3 20 1 27 9 23 22 57 38 61 27 2 -5 14 -11 28
-14 14 -2 27 -5 30 -6 3 -2 8 -2 13 -1 4 0 7 -3 7 -9 0 -5 11 -10 24 -10 13 0
26 -3 28 -8 3 -8 133 -54 158 -57 9 0 20 -4 25 -7 6 -3 28 -9 50 -13 22 -4 87
-22 144 -42 91 -30 153 -43 226 -46 11 -1 41 2 68 7 28 4 60 3 80 -4 42 -14
258 -72 277 -75 8 -1 22 -4 30 -7 71 -24 91 -28 100 -23 5 3 10 2 10 -2 0 -5
24 -14 53 -21 28 -7 57 -14 62 -15 65 -22 143 -39 185 -42 22 -1 38 -9 45 -21
5 -10 15 -22 20 -26 6 -5 6 -8 0 -8 -5 0 0 -7 13 -15 12 -9 46 -16 76 -17 53
-2 56 -3 63 -32 4 -17 8 -34 9 -38 1 -5 2 -13 3 -19 0 -5 6 -7 11 -4 6 3 10
-1 10 -9 0 -22 35 -37 92 -40 64 -4 98 3 98 19 0 11 -46 30 -59 25 -2 -1 -8 5
-13 14 -5 9 -14 13 -20 10 -7 -4 -8 -2 -4 4 4 7 3 12 -1 12 -18 0 -47 73 -44
110 1 14 41 24 41 10 0 -3 8 -6 18 -7 9 -1 73 -20 142 -42 131 -43 193 -56
300 -66 36 -3 72 -8 82 -11 14 -4 38 20 38 39 0 8 -39 48 -45 47 -3 -1 -46 8
-95 20 -50 11 -99 22 -110 23 -11 1 -20 4 -20 8 0 3 -19 10 -42 14 -24 4 -47
9 -53 11 -5 1 -28 5 -49 9 -22 4 -49 10 -60 15 -12 4 -24 8 -29 9 -4 0 -24 8
-45 17 -20 8 -44 16 -54 17 -16 1 -17 14 -4 55 12 35 58 49 178 52 30 0 13 34
-21 41 -41 8 -133 0 -147 -13 -3 -4 -12 -4 -20 -1 -8 3 -14 -1 -14 -8 0 -7 -3
-9 -7 -6 -3 4 -11 2 -18 -3 -17 -14 -58 -19 -72 -8 -7 5 -29 7 -50 4 -21 -3
-41 -5 -45 -6 -4 0 -9 -9 -13 -19 -6 -20 -41 -35 -50 -21 -2 4 -24 10 -47 13
-70 10 -97 16 -273 62 -93 24 -172 42 -176 39 -4 -2 -9 0 -11 5 -1 6 -16 12
-33 15 -16 2 -30 5 -30 6 0 1 -11 3 -25 6 -35 6 -223 65 -235 74 -8 6 -182 54
-234 65 -9 2 -61 15 -116 30 -55 15 -111 29 -125 31 -14 2 -36 9 -50 14 -14 5
-36 11 -50 13 -14 2 -32 7 -40 10 -19 8 -140 38 -160 40 -10 1 -16 13 -16 32
-1 16 -6 42 -12 57 -11 26 -70 78 -94 82 -7 1 -19 5 -27 10 -8 5 -41 9 -75 9
-49 0 -65 4 -78 20 -23 26 -23 37 2 38 19 1 31 4 48 9 4 1 10 2 15 1 4 0 7 10
7 24 0 18 -7 28 -26 36 -15 5 -29 7 -32 5 -2 -3 -16 1 -31 8 -14 7 -33 12 -41
11 -8 -1 -20 3 -26 7 -7 5 -16 8 -20 7 -5 -1 -16 0 -24 4 -13 5 -62 17 -75 18
-2 0 -19 5 -37 10 -18 5 -44 12 -58 14 -14 2 -46 10 -72 18 -26 8 -49 12 -52
9 -3 -2 -11 0 -18 5 -7 6 -26 14 -43 17 -16 3 -41 9 -55 12 -40 9 -174 14
-790 29 -113 3 -272 7 -355 10 -82 2 -179 4 -215 5 -53 0 -70 4 -91 23 -59 50
-103 82 -106 77 -1 -3 -10 5 -18 18 -9 12 -23 22 -31 22 -8 0 -12 5 -9 10 3 6
2 10 -2 10 -5 0 -31 18 -58 40 -28 23 -65 53 -84 68 -18 15 -39 26 -45 24 -6
-2 -8 -1 -4 3 10 10 -31 47 -45 39 -7 -4 -9 -4 -5 1 4 4 3 14 -3 22 -9 10 -6
13 15 14 30 2 33 2 66 13 33 11 101 66 95 76 -3 4 2 10 10 13 14 6 53 82 60
118 4 20 35 57 35 42 0 -4 7 1 16 12 8 11 16 18 17 16 1 -2 12 -1 25 3 12 4
19 12 16 18 -4 6 -3 8 3 5 5 -3 22 3 39 14 16 11 39 24 52 29 12 5 22 14 22
20 0 6 4 9 9 6 5 -3 14 1 21 9 7 8 16 13 20 10 4 -3 19 6 34 20 14 13 26 22
26 19 0 -3 14 3 30 13 17 9 30 21 30 26 0 4 4 6 10 2 5 -3 18 3 30 15 11 11
22 20 25 20 3 0 9 0 14 0 5 0 16 6 23 13 7 6 30 21 51 32 20 11 37 24 37 29 0
5 3 6 6 3 4 -4 19 2 34 13 16 11 33 20 39 20 7 0 14 7 17 15 4 8 10 12 15 10
4 -3 17 3 29 15 11 11 22 20 25 20 3 0 10 0 16 0 5 0 7 5 3 12 -4 6 -3 8 3 5
6 -4 30 6 54 21 24 16 68 41 97 57 28 15 52 32 52 37 0 5 4 7 9 4 5 -3 14 1
21 9 7 8 18 15 24 15 7 0 22 9 34 20 12 11 23 20 24 19 9 -3 58 26 58 34 0 6
3 8 6 4 3 -3 45 18 92 46 48 29 99 59 114 66 15 8 37 23 48 33 11 10 22 18 25
18 22 -1 25 2 19 13 -4 6 -4 9 1 5 9 -9 65 19 65 32 0 6 4 9 8 8 12 -4 82 35
82 45 0 4 4 6 8 3 5 -3 18 2 28 12 10 9 38 26 61 36 23 10 40 23 36 29 -3 6
-1 7 5 3 6 -3 18 1 26 10 9 8 16 12 16 9 0 -4 15 4 34 18 18 15 36 24 38 21 3
-2 11 2 18 11 7 8 18 15 25 15 8 0 15 5 17 11 2 5 37 11 79 13 78 3 139 26
139 54 0 7 4 11 9 8 11 -7 41 54 41 82 0 16 5 20 22 17 57 -11 268 -18 513
-17 286 1 288 1 321 20 29 15 33 15 369 7 160 -4 328 -8 375 -8 82 -1 85 -2
87 -26 3 -59 60 -105 145 -116 44 -6 47 -5 43 14 -3 18 -1 20 16 11 10 -6 19
-9 19 -6 0 3 15 -10 33 -28 36 -37 71 -59 104 -63 21 -3 101 39 115 61 10 14
-1 28 -18 22 -8 -3 -14 -1 -14 4 0 6 -6 10 -12 10 -7 0 -26 11 -42 25 -16 14
-33 25 -38 25 -4 0 -8 6 -8 14 0 8 -4 16 -9 18 -5 2 -12 18 -16 36 l-7 32 296
0 296 0 0 29 c0 20 -6 31 -17 34 -10 3 -145 5 -300 5 -155 0 -286 3 -292 7
-13 7 -10 41 5 68 6 10 41 33 80 52 38 19 65 35 61 35 -4 0 -3 9 3 20 12 22
12 22 -67 24 -23 1 -54 -4 -68 -11z"/>
</g>
</svg>
