<?xml version="1.0" standalone="no"?>
<!DOCTYPE svg PUBLIC "-//W3C//DTD SVG 20010904//EN"
 "http://www.w3.org/TR/2001/REC-SVG-20010904/DTD/svg10.dtd">
<svg version="1.0" xmlns="http://www.w3.org/2000/svg"
 width="16.000000pt" height="16.000000pt" viewBox="0 0 16.000000 16.000000"
 preserveAspectRatio="xMidYMid meet">
<metadata>
Created by potrace 1.11, written by Peter Selinger 2001-2013
</metadata>
<g transform="translate(0.000000,16.000000) scale(0.002909,-0.002909)"
fill="#000000" stroke="none">
<path d="M655 5468 c-16 -10 -36 -22 -43 -26 -12 -8 -15 -30 -27 -182 -3 -41
-8 -95 -10 -120 -2 -25 -7 -79 -10 -120 -4 -41 -8 -91 -10 -110 -2 -19 -6 -75
-10 -125 -4 -49 -8 -103 -10 -120 -2 -16 -7 -69 -10 -116 -3 -47 -7 -101 -9
-120 -3 -19 -7 -74 -11 -124 -3 -49 -8 -101 -10 -115 -3 -14 -7 -63 -10 -110
-3 -47 -7 -105 -10 -130 -2 -25 -6 -79 -10 -120 -3 -41 -8 -97 -10 -125 -3
-27 -7 -75 -9 -105 -6 -67 -24 -284 -31 -360 -3 -30 -8 -89 -11 -130 -3 -41
-7 -91 -9 -110 -21 -209 -25 -444 -11 -630 3 -52 8 -126 11 -165 2 -38 7 -101
9 -140 3 -38 8 -115 11 -170 3 -55 7 -127 10 -160 4 -58 10 -140 20 -310 3
-44 7 -107 10 -140 3 -33 7 -109 10 -170 4 -60 8 -130 10 -155 2 -25 6 -88 10
-140 12 -193 14 -227 20 -320 4 -52 8 -120 11 -150 2 -30 6 -107 9 -170 8
-168 2 -155 73 -158 57 -3 62 -1 79 25 10 15 20 30 23 33 11 9 80 110 80 116
0 3 6 11 12 19 16 16 25 28 147 205 55 80 104 150 108 155 49 58 117 172 119
198 4 60 15 192 19 232 3 22 7 74 10 115 3 41 7 95 10 120 2 25 7 81 10 125 3
44 8 98 10 120 2 22 7 74 10 115 3 41 8 91 10 110 2 19 7 76 10 125 4 50 8
103 10 120 2 16 7 70 11 120 3 49 8 101 9 115 2 14 4 30 4 35 1 6 49 10 124
10 l122 0 5 138 5 139 24 -21 c23 -20 34 -24 56 -23 6 1 60 -13 121 -31 91
-26 120 -39 157 -72 25 -22 54 -41 64 -42 128 -12 143 -16 177 -50 20 -20 48
-37 67 -40 47 -7 88 -38 82 -62 -3 -13 4 -25 24 -37 15 -10 30 -22 33 -25 3
-4 34 -24 69 -44 78 -44 168 -75 216 -75 28 0 35 -4 35 -20 0 -11 6 -21 13
-21 6 -1 19 -2 26 -3 9 0 16 -13 16 -28 2 -27 0 -28 -42 -28 -23 0 -43 4 -43
9 0 5 -8 11 -18 13 -33 9 -58 -54 -27 -66 9 -3 15 -11 14 -18 -1 -7 -1 -22 0
-33 1 -15 4 -16 13 -7 16 16 36 15 55 -3 13 -14 18 -14 32 -2 9 8 31 17 49 19
26 4 32 1 32 -14 0 -15 5 -18 23 -12 12 3 26 13 30 20 8 15 28 19 26 7 -3 -20
2 -23 16 -9 8 8 15 22 15 31 0 8 6 18 14 21 24 9 14 43 -19 58 -26 13 -30 13
-33 1 -2 -10 -16 -15 -43 -15 -38 0 -39 1 -37 30 2 21 8 30 19 30 10 0 20 9
24 19 4 13 19 21 48 26 23 3 58 11 77 17 45 13 200 88 200 97 0 4 15 14 33 24
31 17 49 57 25 57 -17 0 33 40 51 41 9 1 24 2 35 2 11 -1 23 12 32 33 9 21 23
35 37 38 28 6 123 15 159 16 20 0 41 13 70 44 37 37 55 46 123 64 44 11 99 26
122 32 41 10 81 41 102 77 19 35 25 -1 26 -150 l0 -152 117 0 c64 0 119 -2
121 -5 3 -3 8 -32 11 -65 4 -33 8 -80 11 -105 2 -25 7 -80 10 -122 3 -42 7
-85 9 -95 2 -10 7 -61 11 -113 4 -52 9 -108 10 -125 5 -58 16 -180 20 -220 4
-38 10 -112 20 -220 13 -145 16 -183 20 -215 2 -19 7 -73 10 -120 l6 -85 107
-160 c59 -88 110 -161 114 -163 5 -2 8 -8 8 -12 0 -5 15 -30 33 -56 17 -26 57
-84 88 -131 30 -46 59 -80 64 -76 4 5 5 2 0 -6 -4 -7 -3 -16 2 -20 5 -3 24
-27 42 -53 l32 -48 59 0 c41 0 60 4 61 13 1 6 3 30 4 52 6 95 16 224 20 275 2
30 7 93 10 140 3 47 8 114 10 150 7 94 13 192 20 300 4 52 8 115 10 140 2 25
7 90 10 145 3 55 7 120 9 145 3 25 7 92 11 150 4 58 8 121 10 140 2 19 6 85
10 145 3 61 8 130 10 155 2 25 7 88 10 140 3 52 8 120 10 150 20 281 23 429
11 580 -10 118 -14 172 -21 265 -3 44 -8 98 -10 120 -2 22 -7 76 -10 120 -3
44 -8 98 -10 120 -3 22 -7 81 -10 130 -3 50 -7 106 -10 125 -2 19 -7 71 -10
115 -3 44 -8 100 -10 125 -4 41 -7 76 -20 260 -3 36 -7 92 -10 125 -11 119
-14 161 -20 240 -6 80 -11 146 -20 240 -2 28 -7 84 -10 125 -14 188 -16 218
-21 265 -3 28 -7 85 -10 128 -2 43 -6 82 -9 87 -3 5 -25 19 -49 33 -43 24 -43
24 -70 5 -14 -11 -23 -25 -20 -30 4 -6 3 -9 -2 -5 -11 7 -116 -78 -107 -87 4
-3 2 -6 -4 -6 -10 0 -48 -31 -127 -102 -17 -16 -34 -28 -38 -28 -5 0 -8 -7 -8
-17 0 -9 -3 -13 -7 -10 -3 4 -27 -12 -52 -36 -26 -23 -78 -70 -117 -104 l-70
-62 -3 -133 c-2 -142 -6 -276 -16 -618 -3 -118 -8 -299 -10 -401 -8 -326 -16
-522 -21 -531 -3 -5 -40 -8 -82 -7 -42 1 -91 1 -108 0 l-30 -1 1 -146 c0 -80
-3 -148 -7 -150 -4 -3 -8 0 -8 6 0 6 -16 17 -34 25 -19 8 -39 21 -43 30 -5 8
-60 28 -128 45 -65 17 -128 36 -139 43 -12 6 -24 12 -28 13 -5 1 -10 3 -13 4
-3 1 -8 3 -12 5 -5 1 -15 4 -23 8 -8 3 -44 14 -80 23 -85 22 -97 29 -115 64
-11 22 -23 30 -42 30 -18 0 -40 15 -72 48 -81 83 -236 140 -440 162 -2 0 -1 6
2 13 7 19 -10 56 -25 53 -25 -3 -37 -16 -33 -36 4 -23 -5 -30 -48 -36 -55 -8
-142 -26 -151 -32 -5 -3 -21 -6 -35 -7 -58 -5 -180 -67 -228 -116 -26 -27 -57
-49 -68 -49 -21 0 -62 -38 -57 -53 1 -5 -2 -6 -7 -3 -5 4 -12 2 -16 -4 -12
-19 -25 -10 -25 16 0 14 10 40 22 57 23 32 23 36 23 357 l0 325 -35 5 c-75 11
-70 30 -70 -286 l0 -284 -29 0 -29 0 2 215 1 215 -52 0 -53 0 0 -287 c0 -219
4 -298 14 -328 12 -34 13 -82 1 -93 -2 -2 -62 -21 -134 -42 -71 -20 -146 -47
-166 -59 -20 -11 -38 -21 -41 -21 -2 0 -4 61 -4 135 0 101 -3 135 -12 136 -7
0 -58 1 -113 2 l-99 2 -2 67 c-2 63 -8 297 -19 708 -3 102 -7 271 -10 375 -3
105 -8 269 -10 365 l-4 174 -35 31 c-20 16 -57 48 -82 70 -26 22 -68 59 -93
82 -25 23 -49 43 -52 43 -4 0 -26 19 -51 43 -68 64 -129 112 -140 109 -5 -1
-7 2 -4 7 6 10 -64 68 -77 63 -5 -1 -6 1 -3 6 3 5 -7 18 -22 29 -27 19 -28 19
-57 1z"/>
</g>
</svg>
